<?xml version="1.0" standalone="no"?>
<!DOCTYPE svg PUBLIC "-//W3C//DTD SVG 20010904//EN"
 "http://www.w3.org/TR/2001/REC-SVG-20010904/DTD/svg10.dtd">
<svg version="1.0" xmlns="http://www.w3.org/2000/svg"
 width="700.000000pt" height="700.000000pt" viewBox="0 0 700.000000 700.000000"
 preserveAspectRatio="xMidYMid meet">
<metadata>
Created by potrace 1.11, written by Peter Selinger 2001-2013
</metadata>
<g transform="translate(0.000000,700.000000) scale(0.100000,-0.100000)"
fill="#000000" stroke="none">
<path d="M3335 6993 c-1155 -57 -2181 -660 -2808 -1651 -88 -138 -243 -452
-302 -612 -304 -819 -294 -1703 28 -2530 54 -140 196 -419 282 -555 516 -818
1353 -1395 2285 -1574 304 -59 370 -65 680 -65 315 0 417 9 684 60 810 157
1560 621 2081 1289 596 763 840 1732 684 2715 -202 1272 -1129 2353 -2364
2755 -388 127 -846 188 -1250 168z m420 -1358 c278 -58 497 -176 696 -374 203
-204 327 -447 374 -736 34 -209 11 -404 -79 -660 -160 -452 -529 -1139 -1019
-1897 -32 -48 -57 -89 -57 -91 0 -2 93 -7 208 -10 810 -26 1448 -146 1511
-283 15 -34 15 -38 -15 -74 -105 -125 -620 -222 -1379 -261 -254 -13 -921 -7
-1165 11 -765 55 -1230 167 -1230 297 0 150 655 283 1518 310 116 3 212 8 212
9 0 2 -37 61 -83 131 -470 722 -856 1448 -1003 1883 -109 325 -115 561 -18
849 165 494 596 845 1120 911 98 12 315 4 409 -15z"/>
<path d="M3370 4844 c-96 -25 -161 -64 -236 -138 -103 -104 -154 -224 -154
-366 0 -142 51 -262 154 -366 76 -76 141 -113 241 -139 292 -75 595 129 638
430 53 364 -290 673 -643 579z"/>
</g>
</svg>
